<svg role="img" aria-label="Async Alpine" viewBox="0 0 361.1 111.5" xmlns="http://www.w3.org/2000/svg">
  <path d="M0 58.1 24.2 20 52 34.8 75 0l36 33.4 27.6 3.4 9.5 21.3H0Z" fill="#AEC670"/>
  <path d="m245.1 58.1 36.7-38.6 20.4 12.7 26-28 32.9 54h-116Z" fill="#668016"/>
  <path fill="#D7E2B8" d="M35.1 97.5H326V108H35.1z"/>
  <path d="M70.2 102.5h-10L59 97.2h-7.5l-1.3 5.3h-9.8l9-27.8h11.8l9 27.8ZM53 91h4.5l-2.2-9.6L53 91Zm29 11.9a19.6 19.6 0 0 1-10.9-3.4l3.5-5a10.7 10.7 0 0 0 6.7 2.6c.5 0 .9 0 1.3-.2.3 0 .5-.3.5-.6 0-.2 0-.4-.3-.5l-1.3-.3-1.6-.3c-3-.6-5.2-1.4-6.4-2.5a5.5 5.5 0 0 1-2-4.4 6 6 0 0 1 1.2-3.4c.7-1.1 2-2 3.5-2.8a17 17 0 0 1 6.5-1c2.2 0 4.1.2 5.9.8a12 12 0 0 1 4.2 2.2L89.6 89a11.4 11.4 0 0 0-7.4-2c-.3 0-.5.2-.7.3l-.2.3c0 .2.2.4.5.6l1.6.4 3 .5c2.3.4 4 1.1 5 2.2s1.5 2.4 1.5 4a7 7 0 0 1-4.6 6.6c-1.5.7-3.6 1-6.2 1Zm37.7-21.4-6.2 18.6c-1 2.8-2 5-3.1 6.7a10.2 10.2 0 0 1-4 3.6 16.3 16.3 0 0 1-9.4.7c-1.2-.2-2.1-.6-3-1l1.9-6 1.4.5a11.6 11.6 0 0 0 4.3-.1c.4-.2.7-.5.9-.9l.1-.3-2.6-6.2-6-15.6h10.5l1.9 10.8.8 5 1-5 2-10.8h9.5Zm2.2 21v-21h8.7l.4 8.9-1-1a12 12 0 0 1 1.3-4.5 7.2 7.2 0 0 1 6.8-3.9c1.4 0 2.6.3 3.6.9 1 .5 1.7 1.3 2.2 2.4.5 1 .8 2.3.8 3.8v14.4H135v-12c0-.9-.1-1.5-.3-1.8-.3-.4-.7-.5-1.2-.5-.4 0-.8 0-1 .3-.4.2-.6.6-.7 1a5 5 0 0 0-.3 1.9v11H122Zm38-21.5c2.5 0 4.6.4 6.3 1.1 1.6.7 2.8 1.6 3.5 2.7a6 6 0 0 1 1.2 3.4l-8.9 2.6c0-1.1 0-2-.4-2.5-.2-.5-.7-.7-1.3-.7-.6 0-1 0-1.4.4-.3.2-.6.7-.7 1.3-.2.7-.3 1.6-.3 2.8a9 9 0 0 0 .3 2.7c.2.6.5 1 .9 1.3l1.2.3c.4 0 .8-.1 1-.3.3-.2.5-.6.6-1 .2-.4.3-1 .3-1.5l8.7 2.7a5 5 0 0 1-1.4 3.2c-.9 1-2 1.8-3.6 2.5a15 15 0 0 1-5.5.9 15 15 0 0 1-6.6-1.3c-1.8-.8-3.2-2-4.1-3.7-1-1.6-1.5-3.6-1.5-6 0-2.3.5-4.2 1.5-5.9 1-1.6 2.3-2.8 4-3.7 1.8-.8 3.8-1.3 6.2-1.3Zm52.9 21.5h-10l-1.3-5.3h-7.4l-1.3 5.3H183l9-27.8h11.8l9 27.8ZM195.5 91h4.6l-2.3-9.6-2.3 9.6Zm29.2-18v21c0 .9.1 1.5.4 1.9.2.3.7.5 1.3.5a4.8 4.8 0 0 0 1.5-.2l-.4 5.2c-.5.4-1.3.8-2.3 1-1 .3-2 .4-3 .4-2.5 0-4.4-.6-5.5-1.7-1.1-1.1-1.7-3-1.7-5.6V73h9.7Zm5.6 38.2V81.5h8.8l.5 9.2-1.1-1c0-1.7.4-3.2 1-4.5a7.5 7.5 0 0 1 2.6-3c1-.8 2.4-1.2 3.9-1.2 1.7 0 3.2.5 4.3 1.3 1.2.9 2.1 2.1 2.8 3.7.6 1.6.9 3.5.9 5.8a15 15 0 0 1-1 6 8 8 0 0 1-2.7 3.8 7.3 7.3 0 0 1-4.4 1.3c-2 0-3.6-.7-4.7-2-1-1.3-1.8-3-2-5l.8-1.3v16.7h-9.7ZM242.1 96a2 2 0 0 0 1.6-.8 8 8 0 0 0 .5-3.3c0-1.7-.2-2.8-.5-3.3a2 2 0 0 0-1.6-.9c-.5 0-.8.2-1.1.5-.3.2-.6.7-.8 1.3a9 9 0 0 0-.2 2.4c0 .9 0 1.6.2 2.2.1.7.4 1.1.7 1.4.3.3.7.5 1.2.5Zm20.4-16c-1.9 0-3.3-.3-4-.9-.8-.6-1.2-1.7-1.2-3.1 0-1.5.4-2.5 1.1-3.1a7 7 0 0 1 4.1-1c2 0 3.3.4 4 1 .9.6 1.3 1.6 1.3 3 0 1.5-.4 2.6-1.2 3.2a7 7 0 0 1-4.1 1Zm4.8 1.4v21h-9.6v-21h9.6Zm4.3 21v-21h8.7l.4 8.9-1-1a12 12 0 0 1 1.4-4.5 7.2 7.2 0 0 1 6.7-3.9c1.4 0 2.6.3 3.6.9 1 .5 1.7 1.3 2.2 2.4.5 1 .8 2.3.8 3.8v14.4h-9.7v-12c0-.9 0-1.5-.3-1.8-.3-.4-.7-.5-1.2-.5-.4 0-.8 0-1 .3-.4.2-.6.6-.7 1-.2.5-.2 1.1-.2 1.9v11h-9.7Zm38.3.4a15 15 0 0 1-6.5-1.3c-1.8-.8-3.2-2-4.1-3.7-1-1.6-1.5-3.6-1.5-6 0-2.3.5-4.2 1.5-5.9 1-1.6 2.3-2.8 4-3.7a15.2 15.2 0 0 1 12.2 0c1.7.9 3 2 3.9 3.6a12 12 0 0 1 1.3 5.4 15.8 15.8 0 0 1-.3 2.5h-16.3v-3.6h12.1l-4.5 1.9a14 14 0 0 0-.4-3.5c-.3-.8-.9-1.2-1.8-1.2-.6 0-1 .2-1.4.5-.4.2-.7.7-.8 1.4-.2.7-.3 1.6-.3 2.8 0 1.2.1 2.2.3 2.8.3.6.6 1 1 1.2.5.3 1 .4 1.7.4s1.3-.2 1.7-.5c.4-.3.7-.8.8-1.3l7.8 2c-.3 1.4-1 2.6-2 3.5a14 14 0 0 1-8.4 2.7Z" fill="#21300B"/>
  <path d="M249.2 25.7h-100v-2.1l18.7-12.9 1.3 1v7.8h80v6.2Zm-100 4.2h100V32l-18.7 13-1.3-1v-7.8h-80V30Z" fill="#BCC0B7"/>
</svg>
